<?xml version="1.0" encoding="UTF-8" standalone="no"?>
<!DOCTYPE svg PUBLIC "-//W3C//DTD SVG 20010904//EN"
"http://www.w3.org/TR/2001/REC-SVG-20010904/DTD/svg10.dtd"
[
 <!ATTLIST svg
  xmlns:xlink CDATA #FIXED "http://www.w3.org/1999/xlink">
]>
<!-- Created with Sodipodi ("http://www.sodipodi.com/") -->
<svg
   id="svg101"
   sodipodi:version="0.31"
   xmlns="http://www.w3.org/2000/svg"
   xmlns:sodipodi="http://sodipodi.sourceforge.net/DTD/sodipodi-0.dtd"
   xmlns:xlink="http://www.w3.org/1999/xlink"
   width="210mm"
   height="297mm"
   sodipodi:docbase="/home/nick/"
   sodipodi:docname="/home/nick/accidentals.svg">
  <defs
     id="defs103" />
  <sodipodi:namedview
     id="base" />
  <g
     id="g122">
    <path
       style="font-size:12;fill-rule:evenodd;stroke-width:1pt;fill:#000000;fill-opacity:1;"
       d="M 352.04 226.759 C 353.141 226.759 354.384 226.741 354.966 226.741 C 354.966 227.613 354.996 261.573 354.967 261.651 C 360.015 256.73 372.621 257.328 372.849 266.173 C 372.97 270.812 360.115 284.209 354.469 285.269 C 354.481 283.698 354.448 283.116 354.52 282.317 C 357.936 281.59 366.646 274.186 366.888 266.173 C 367.097 259.08 358.6 262.747 354.894 265.145 C 354.168 265.145 353.376 265.278 352.068 265.206 C 352.141 263.534 352.052 227.375 352.04 226.759 z "
       id="path118"
       sodipodi:nodetypes="cccsccsccc"
       transform="translate(-0.0523424,-3.05176e-05)" />
    <path
       style="font-size:12;fill-rule:evenodd;stroke-width:1pt;fill:#000000;fill-opacity:1;"
       d="M 352.099 265.187 C 353.262 265.115 354.022 265.115 355.039 265.014 C 355.034 266.864 355.043 283.443 355.038 285.332 C 353.585 285.293 352.994 285.226 352.049 285.299 C 352.049 283.192 352.1 267.295 352.099 265.187 z "
       id="path119"
       sodipodi:nodetypes="ccccc"
       transform="translate(-0.0523424,-3.05176e-05)" />
  </g>
  <g
     id="g131">
    <g
       id="g125"
       transform="translate(-46.7188,-3.05176e-05)">
      <path
         style="font-size:12;fill-rule:evenodd;stroke-width:1pt;fill:#000000;fill-opacity:1;"
         d="M 352.04 226.759 C 353.141 226.759 354.384 226.741 354.966 226.741 C 354.966 227.613 354.996 261.573 354.967 261.651 C 360.015 256.73 372.621 257.328 372.849 266.173 C 372.97 270.812 360.115 284.209 354.469 285.269 C 354.481 283.698 354.448 283.116 354.52 282.317 C 357.936 281.59 366.646 274.186 366.888 266.173 C 367.097 259.08 358.6 262.747 354.894 265.145 C 354.168 265.145 353.376 265.278 352.068 265.206 C 352.141 263.534 352.052 227.375 352.04 226.759 z "
         id="path126"
         sodipodi:nodetypes="cccsccsccc"
         transform="translate(-0.0523424,-3.05176e-05)" />
      <path
         style="font-size:12;fill-rule:evenodd;stroke-width:1pt;fill:#000000;fill-opacity:1;"
         d="M 352.099 265.187 C 353.262 265.115 354.022 265.115 355.039 265.014 C 355.034 266.864 355.043 283.443 355.038 285.332 C 353.585 285.293 352.994 285.226 352.049 285.299 C 352.049 283.192 352.1 267.295 352.099 265.187 z "
         id="path127"
         sodipodi:nodetypes="ccccc"
         transform="translate(-0.0523424,-3.05176e-05)" />
    </g>
    <g
       id="g128"
       transform="translate(-64.6876,-3.05176e-05)">
      <path
         style="font-size:12;fill-rule:evenodd;stroke-width:1pt;fill:#000000;fill-opacity:1;"
         d="M 352.04 226.759 C 353.141 226.759 354.384 226.741 354.966 226.741 C 354.966 227.613 354.996 261.573 354.967 261.651 C 360.015 256.73 372.621 257.328 372.849 266.173 C 372.97 270.812 360.115 284.209 354.469 285.269 C 354.481 283.698 354.448 283.116 354.52 282.317 C 357.936 281.59 366.646 274.186 366.888 266.173 C 367.097 259.08 358.6 262.747 354.894 265.145 C 354.168 265.145 353.376 265.278 352.068 265.206 C 352.141 263.534 352.052 227.375 352.04 226.759 z "
         id="path129"
         sodipodi:nodetypes="cccsccsccc"
         transform="translate(-0.0523424,-3.05176e-05)" />
      <path
         style="font-size:12;fill-rule:evenodd;stroke-width:1pt;fill:#000000;fill-opacity:1;"
         d="M 352.099 265.187 C 353.262 265.115 354.022 265.115 355.039 265.014 C 355.034 266.864 355.043 283.443 355.038 285.332 C 353.585 285.293 352.994 285.226 352.049 285.299 C 352.049 283.192 352.1 267.295 352.099 265.187 z "
         id="path130"
         sodipodi:nodetypes="ccccc"
         transform="translate(-0.0523424,-3.05176e-05)" />
    </g>
  </g>
  <g
     id="g154">
    <path
       style="font-size:12;fill-rule:evenodd;stroke-width:1pt;"
       d="M 399.064 226.733 C 399.064 226.733 401.877 226.89 401.877 226.89 C 401.877 226.89 402.01 272.038 402.01 273.419 C 400.685 273.806 400.201 273.917 398.875 274.248 C 398.931 272.48 399.064 226.968 399.064 226.733 z "
       id="path146"
       transform="translate(0,-6.00815e-05)"
       sodipodi:nodetypes="ccccc" />
    <path
       style="font-size:12;fill-rule:evenodd;stroke-width:1pt;"
       d="M 413.674 244.077 C 410.862 244.859 401.877 247.28 401.877 247.28 C 401.877 247.28 401.877 253.452 401.877 254.155 C 403.049 253.842 409.6 251.768 410.815 251.547 C 410.815 252.707 410.617 263.021 410.617 264.428 C 409.133 264.74 401.877 267.202 401.877 267.202 C 401.877 267.202 401.877 272.281 401.877 273.453 C 402.971 273.062 410.783 271.03 410.783 271.03 C 410.783 271.03 410.861 291.109 410.783 291.109 C 410.705 291.109 413.674 291.187 413.674 291.187 C 413.674 291.187 413.596 246.187 413.674 244.077 z "
       id="path148"
       sodipodi:nodetypes="ccccccccccc"
       transform="translate(0,-6.00815e-05)" />
  </g>
  <g
     id="g163">
    <path
       style="fill:#000000;fill-rule:evenodd;stroke:none;stroke-opacity:1;stroke-width:1pt;stroke-linejoin:miter;stroke-linecap:butt;fill-opacity:1;"
       d="M 446.096 229.702 C 446.096 229.702 448.908 229.702 448.908 229.702 C 448.908 229.702 449.065 244.39 449.065 244.39 C 449.065 244.39 454.924 241.577 454.924 241.577 C 454.924 241.577 454.924 226.811 454.924 226.811 C 454.924 226.811 457.737 226.811 457.737 226.811 C 457.737 226.811 457.815 240.64 457.815 240.64 C 457.815 240.64 460.549 239.468 460.549 239.468 C 460.549 239.468 460.627 249.702 460.627 249.702 C 460.627 249.702 443.049 258.999 443.049 258.999 C 443.049 258.999 443.283 247.358 443.283 247.358 C 443.283 247.358 446.018 245.796 446.018 245.796 C 446.018 245.796 446.096 229.858 446.096 229.702 z "
       id="path157"
       sodipodi:nodetypes="ccccccccccccc"
       transform="matrix(-1,-0,0,-1,903.754,523.845)" />
    <path
       style="fill:#000000;fill-rule:evenodd;stroke:none;stroke-opacity:1;stroke-width:1pt;stroke-linejoin:miter;stroke-linecap:butt;fill-opacity:1;"
       d="M 446.096 229.702 C 446.096 229.702 448.908 229.702 448.908 229.702 C 448.908 229.702 449.065 244.39 449.065 244.39 C 449.065 244.39 454.924 241.577 454.924 241.577 C 454.924 241.577 454.924 226.811 454.924 226.811 C 454.924 226.811 457.737 226.811 457.737 226.811 C 457.737 226.811 457.815 240.64 457.815 240.64 C 457.815 240.64 460.549 239.468 460.549 239.468 C 460.549 239.468 460.627 249.702 460.627 249.702 C 460.627 249.702 443.049 258.999 443.049 258.999 C 443.049 258.999 443.283 247.358 443.283 247.358 C 443.205 247.202 445.471 246.343 446.096 246.03 C 446.096 245.171 446.096 229.858 446.096 229.702 z "
       id="path160"
       sodipodi:nodetypes="ccccccccccccc"
       transform="translate(-2.77527e-07,0.0780945)" />
    <path
       style="fill:#000000;fill-rule:evenodd;stroke:none;stroke-opacity:1;stroke-width:1pt;stroke-linejoin:miter;stroke-linecap:butt;fill-opacity:1;"
       d="M 446.096 245.718 C 446.096 245.718 446.174 273.609 446.174 273.609 C 446.174 273.609 449.065 271.499 449.065 271.499 C 449.065 271.499 448.987 246.186 448.987 246.186 C 448.987 246.186 446.252 245.796 446.096 245.718 z "
       id="path161" />
    <path
       style="fill:#000000;fill-rule:evenodd;stroke:none;stroke-opacity:1;stroke-width:1pt;stroke-linejoin:miter;stroke-linecap:butt;fill-opacity:1;"
       d="M 454.924 268.062 C 454.924 268.062 454.924 248.921 454.924 248.999 C 454.924 249.077 457.815 250.64 457.815 250.64 C 457.815 250.64 457.815 267.437 457.815 267.437 C 457.815 267.437 454.924 268.374 454.924 268.062 z "
       id="path162" />
  </g>
  <path
     style="fill:#000000;fill-rule:evenodd;stroke:none;stroke-opacity:1;stroke-width:1pt;stroke-linejoin:miter;stroke-linecap:butt;fill-opacity:1;"
     d="M 492.989 244.322 C 492.989 244.322 499.784 244.267 499.784 244.267 C 499.674 250.454 502.049 251.669 502.049 251.669 C 502.049 251.669 504.424 251.725 504.424 251.725 C 504.424 251.725 506.745 250.454 506.745 244.267 C 507.795 244.267 513.539 244.322 513.539 244.322 C 513.539 244.322 513.595 251.725 513.595 251.725 C 507.905 251.67 506.745 254.763 506.745 254.763 C 506.745 254.763 506.745 257.525 506.745 257.525 C 506.745 257.525 507.849 260.397 513.539 260.397 C 513.539 261.723 513.539 267.8 513.539 267.8 C 513.539 267.8 506.745 267.8 506.745 267.8 C 506.635 261.723 504.59 260.563 504.59 260.563 C 504.59 260.563 502.104 260.508 502.104 260.508 C 502.104 260.508 499.839 261.558 499.839 267.745 C 498.568 267.745 492.934 267.745 492.934 267.745 C 492.934 267.745 492.989 261.06 492.989 260.398 C 499.121 260.287 499.784 257.525 499.784 257.525 C 499.784 257.525 499.784 254.818 499.784 254.818 C 499.784 254.818 499.232 251.724 492.934 251.669 C 492.989 250.122 492.989 244.432 492.989 244.322 z "
     id="path184"
     sodipodi:nodetypes="ccccccccccccccccccccc" />
</svg>
