<?xml version="1.0" encoding="UTF-8" standalone="no"?>
<svg xmlns="http://www.w3.org/2000/svg" xmlns:xlink="http://www.w3.org/1999/xlink" width="64" height="64" viewBox="0 0 125.957 125.956">
  <linearGradient id="b">
    <stop offset="0" stop-color="#418bde"/>
    <stop offset="1" stop-color="#001b7b"/>
  </linearGradient>
  <linearGradient id="a">
    <stop offset="0" stop-color="#fff"/>
    <stop offset="1" stop-color="#fff" stop-opacity="0"/>
  </linearGradient>
  <linearGradient id="i" x1="31.053" x2="53.82" y1="21.614" y2="60.985" gradientTransform="matrix(.987913 -.00997891 .00997891 .987913 .758045 .758039)" gradientUnits="userSpaceOnUse" xlink:href="#a"/>
  <linearGradient id="g" x1="62.997" x2="62.997" y1="167.233" y2="64.977" gradientUnits="userSpaceOnUse" xlink:href="#a"/>
  <linearGradient id="f" x1="27.003" x2="73.706" y1="26.375" y2="73.758" gradientUnits="userSpaceOnUse" xlink:href="#a"/>
  <linearGradient id="e" x1="65.084" x2="65.084" y1="14.162" y2="77.263" gradientUnits="userSpaceOnUse" xlink:href="#a"/>
  <linearGradient id="d" x1="62.977" x2="62.977" y1="181.128" y2="61.909" gradientUnits="userSpaceOnUse">
    <stop offset="0" stop-color="#a4cdec"/>
    <stop offset="1" stop-color="#0068c6"/>
  </linearGradient>
  <linearGradient id="c" x1="55.344" x2="55.344" y1="154.806" y2="41.343" gradientTransform="matrix(.987967 0 0 .987959 .758045 .758039)" gradientUnits="userSpaceOnUse" xlink:href="#b"/>
  <linearGradient id="h" x1="64.782" x2="122.687" y1="51.855" y2="51.855" gradientTransform="scale(.776642 1.287595)" gradientUnits="userSpaceOnUse" xlink:href="#b"/>
  <g transform="matrix(1.012131 0 0 1.012131 -.763964 -.76396)">
    <path fill="url(#c)" d="m125.1989 62.347652c.34776 34.363329-27.229248 62.502488-61.591589 62.850258-34.363329.34776-62.501503-27.228264-62.849266-61.591593-.34776298-34.362341 27.227272-62.500515 61.589613-62.848278 34.364317-.34776298 62.502492 27.227272 62.851242 61.589613z"/>
    <path fill="url(#d)" d="m118.60919 62.413846c.31022 30.725649-24.344399 55.884124-55.06906 56.195334-30.723674.31022-55.8831394-24.344395-56.1943477-55.069056-.3102204-30.723674 24.3453847-55.8841273 55.0690577-56.1943477 30.725649-.3102204 55.88413 24.3453847 56.19435 55.0680697z"/>
    <path fill="url(#e)" d="m63.449237 11.878551c-27.077102.273665-48.80636 22.447507-48.532694 49.523621.014819 1.492812.107688 2.965865.253906 4.42311 13.537069 5.651149 29.751518 8.863016 47.156462 8.687159 18.997541-.191665 36.499305-4.38952 50.589629-11.324032.04249-.919794.06323-1.845515.05632-2.778152-.27367-27.076114-22.445533-48.805372-49.523623-48.531706z"/>
    <path fill="url(#f)" d="m64.943037 17.198731c24.434301-.24699 45.006653 16.809203 50.084783 39.752668-3.01625-26.324275-25.501299-46.641734-52.580377-46.368068-28.936449.292437-52.156543 23.98873-51.864106 52.92419.148194 14.649515 6.30024 27.82499 16.087002 37.234349-7.371192-8.714821-11.864448-19.950924-11.988931-32.255015-.283546-28.042342 22.219287-51.004578 50.261629-51.288124z"/>
    <path fill="url(#g)" d="m63.435406 110.14728c-26.126682.26477-47.683047-19.937095-49.4515-45.670567-.046435.96524-.074098 1.934431-.06323 2.912515.273666 27.10674 22.469243 48.855762 49.57302 48.581102 27.105752-.27366 48.853784-22.467264 48.580114-49.574005-.00988-.977096-.05631-1.947275-.12349-2.910539-1.24681 25.764099-22.389221 46.396714-48.514914 46.661494z" opacity=".5"/>
    <path fill="url(#h)" d="m50.312128 95.973463c.021269 2.087577.839072 4.167707 2.447028 5.742697 3.218039 3.15317 8.385405 3.10105 11.536445-.11592l28.660325-29.247351c.172281-.176535.336055-.364767.492383-.554064.049983-.062745.095712-.124426.145695-.188233.104219-.133997.200994-.274374.298833-.414751.045729-.069125.093584-.140377.139314-.209502.118044-.191423.230771-.381782.333927-.581713.035094-.065935.065935-.137188.097839-.203122.072315-.148885.14144-.29777.203121-.449845.037221-.091457.070188-.181852.106346-.274373.05211-.139314.095712-.277564.141441-.417942.024459-.085077.054236-.170154.076569-.258421.062744-.214819.113791-.437083.154202-.658284.010635-.041474.014889-.090394.022333-.137186.032967-.189296.056363-.37753.07657-.570016.00638-.074442.012761-.147822.017015-.223327.010635-.172281.019142-.345626.019142-.520034.002127-.065935.004254-.132933.002127-.197803-.004253-.23928-.017015-.475369-.039348-.712521 0-.004253-.002127-.009571-.002127-.009571-.024459-.231835-.064871-.458352-.106347-.683806-.017015-.077634-.032966-.158457-.052109-.240343-.035094-.147822-.070188-.298834-.113791-.444528-.024459-.093584-.052109-.187169-.08295-.2765-.045728-.143568-.095712-.285008-.152075-.423258-.032967-.084014-.062744-.169091-.097838-.254168 0-.00319 0-.00319-.002127-.005317-.087204-.203122-.182916-.399862-.282881-.59235-.043603-.085077-.093585-.168027-.143568-.24885-.072316-.132932-.152075-.262675-.232898-.388163-.05211-.07657-.099966-.155266-.154203-.229708-.111663-.158457-.226517-.312659-.346689-.462606-.03084-.037222-.05849-.07657-.087204-.113791-.161646-.189297-.328609-.370086-.503017-.542367-.017016-.017015-.028714-.032966-.04573-.052109l-29.245228-28.658198c-3.219103-3.155294-11.45235-3.978695-11.53751.116981z" opacity=".2"/>
    <path fill="#fff" d="m48.312128 93.973463c.021269 2.087577.839072 4.167708 2.447028 5.742698 3.218039 3.153169 8.385405 3.101049 11.536445-.11592l28.660325-29.247352c.172281-.176535.336055-.364767.492383-.554064.049983-.062745.095712-.124426.145695-.188233.104219-.133997.200994-.274374.298833-.414751.045729-.069125.093584-.140377.139314-.209502.118044-.191423.230771-.381782.333927-.581713.035094-.065935.065935-.137188.097839-.203122.072315-.148885.14144-.29777.203121-.449845.037221-.091457.070188-.181852.106346-.274373.05211-.139314.095712-.277564.141441-.417942.024459-.085077.054236-.170154.076569-.258421.062744-.214819.113791-.437083.154202-.658284.010635-.041474.014889-.090394.022333-.137186.032967-.189296.056363-.37753.07657-.570016.00638-.074442.012761-.147822.017015-.223327.010635-.172281.019142-.345626.019142-.520034.002127-.065935.004254-.132933.002127-.197803-.004253-.23928-.017015-.475369-.039348-.712521 0-.004253-.002127-.009571-.002127-.009571-.024459-.231835-.064871-.458352-.106347-.683806-.017015-.077634-.032966-.158457-.052109-.240343-.035094-.147822-.070188-.298834-.113791-.444528-.024459-.093584-.052109-.187169-.08295-.2765-.045728-.143568-.095712-.285008-.152075-.423258-.032967-.084014-.062744-.169091-.097838-.254168 0-.00319 0-.00319-.002127-.005317-.087204-.203122-.182916-.399862-.282881-.59235-.043603-.085077-.093585-.168027-.143568-.24885-.072316-.132932-.152075-.262675-.232898-.388163-.05211-.07657-.099966-.155266-.154203-.229708-.111663-.158457-.226517-.312659-.346689-.462606-.03084-.037222-.05849-.07657-.087204-.113791-.161646-.189297-.328609-.370086-.503017-.542367-.017016-.017015-.028714-.032966-.04573-.052109l-29.245228-28.658198c-3.219103-3.155294-11.53751-2.97299-11.53751 3.272556z"/>
    <path fill="url(#i)" d="m53.044011 30.436448c-4.996129-4.060528-10.766821-7.048129-17.030506-8.635785-11.11656 7.676472-19.586367 19.882755-23.516484 34.399884 5.670908-2.812731 11.958305-4.419159 18.596428-4.48634 1.682501-.016796 3.341291.074097 4.977358.253906 4.08819-8.646652 9.924088-16.034639 16.973204-21.531665z" opacity=".6"/>
  </g>
</svg>
